<svg width="24" height="24" viewBox="0 0 24 24" fill="none" xmlns="http://www.w3.org/2000/svg">
<path d="M23.6097 10.836L21.8917 7.24396C21.6737 6.78896 21.1497 6.56596 20.6727 6.72696L11.9957 9.62296L3.30671 6.72796C2.82971 6.56896 2.30571 6.78996 2.08771 7.24596L0.435707 10.719C-0.0412931 11.511 -0.131293 12.462 0.188707 13.328C0.498707 14.168 1.15271 14.819 1.98971 15.123L1.98371 17.438C1.98371 19.595 3.35671 21.503 5.40271 22.185L9.76771 23.641C10.4817 23.878 11.2317 23.997 11.9817 23.997C12.7317 23.997 13.4817 23.878 14.1957 23.64L18.5647 22.184C20.6087 21.502 21.9827 19.598 21.9837 17.446L21.9897 15.124C22.8357 14.828 23.4977 14.179 23.8087 13.336C24.1247 12.478 24.0357 11.536 23.6097 10.836ZM2.19371 11.666L3.51171 8.90296L10.5767 11.257L8.95671 14.513C8.71471 14.919 8.22771 15.097 7.78271 14.949L2.70171 13.254C2.40371 13.155 2.17171 12.93 2.06271 12.636C1.95471 12.343 1.98571 12.02 2.19371 11.666ZM6.03571 20.289C4.80771 19.879 3.98271 18.734 3.98371 17.441L3.98771 15.791L7.15171 16.846C8.49771 17.292 9.94471 16.756 10.7107 15.474L10.9877 14.919L10.9837 21.898C10.7867 21.858 10.5927 21.807 10.4017 21.744L6.03671 20.289H6.03571ZM17.9317 20.287L13.5627 21.743C13.3727 21.806 13.1787 21.858 12.9827 21.898L12.9867 14.903L13.3057 15.543C13.8627 16.471 14.8377 17.003 15.8677 17.003C16.1857 17.003 16.5107 16.952 16.8277 16.846L19.9877 15.793L19.9837 17.444C19.9837 18.736 19.1587 19.878 17.9317 20.287ZM21.9317 12.642C21.8267 12.927 21.6007 13.146 21.3127 13.243L16.1947 14.948C15.7567 15.095 15.2597 14.912 15.0587 14.583L13.4047 11.261L20.4687 8.90396L21.8507 11.784C22.0067 12.045 22.0377 12.357 21.9317 12.642ZM5.21371 5.89596C4.82271 5.50496 4.82271 4.87296 5.21371 4.48196L9.11071 0.585959C9.88971 -0.193041 11.1597 -0.193041 11.9387 0.585959L13.5347 2.18196C14.2877 1.79696 15.2727 1.91196 15.8877 2.52696L18.1427 4.78196C18.5337 5.17296 18.5337 5.80496 18.1427 6.19596C17.7517 6.58696 17.1197 6.58696 16.7287 6.19596L14.4737 3.94096L11.3227 7.09196C11.1277 7.28696 10.8717 7.38496 10.6157 7.38496C10.3597 7.38496 10.1037 7.28696 9.90871 7.09196C9.51771 6.70096 9.51771 6.06896 9.90871 5.67796L12.0557 3.53096L10.5257 2.00096L6.62871 5.89696C6.43371 6.09196 6.17771 6.18996 5.92171 6.18996C5.66571 6.18996 5.40971 6.09196 5.21471 5.89696L5.21371 5.89596Z" fill="#64748B"/>
</svg>
