<svg width="24" height="24" viewBox="0 0 24 24" fill="none" xmlns="http://www.w3.org/2000/svg">
<path fill-rule="evenodd" clip-rule="evenodd" d="M11.9988 2.75035C10.3412 2.75035 8.75148 3.40883 7.57938 4.58093C6.40727 5.75303 5.74879 7.34274 5.74879 9.00035C5.74879 10.658 6.40727 12.2477 7.57938 13.4198C8.75148 14.5919 10.3412 15.2503 11.9988 15.2503C13.6564 15.2503 15.2461 14.5919 16.4182 13.4198C17.5903 12.2477 18.2488 10.658 18.2488 9.00035C18.2488 7.34274 17.5903 5.75303 16.4182 4.58093C15.2461 3.40883 13.6564 2.75035 11.9988 2.75035ZM4.24879 9.00035C4.2496 7.86796 4.49855 6.74951 4.97812 5.72369C5.45769 4.69786 6.15624 3.7896 7.02461 3.0628C7.89297 2.336 8.91006 1.80832 10.0043 1.5169C11.0986 1.22548 12.2434 1.17739 13.3582 1.37602C14.473 1.57465 15.5308 2.01517 16.4571 2.66658C17.3833 3.318 18.1556 4.16448 18.7195 5.14647C19.2834 6.12846 19.6253 7.22209 19.721 8.35042C19.8168 9.47875 19.6641 10.6144 19.2738 11.6773L21.5618 14.0453C21.8188 14.3123 22.0328 14.5343 22.1928 14.7193C22.3508 14.9013 22.5128 15.1093 22.6078 15.3513C22.9418 16.1963 22.6738 17.1963 21.8688 17.6883C21.6388 17.8303 21.3748 17.8883 21.1488 17.9263C20.9168 17.9663 20.6228 17.9963 20.2758 18.0333L20.2518 18.0353C19.7928 18.0843 19.7058 18.0993 19.6468 18.1223C19.5543 18.1588 19.4708 18.2149 19.4022 18.287C19.3336 18.359 19.2816 18.4451 19.2498 18.5393C19.2238 18.6093 19.2088 18.7123 19.1618 19.1833L19.1598 19.2053C19.1238 19.5663 19.0938 19.8693 19.0568 20.1073C19.0208 20.3373 18.9668 20.6013 18.8338 20.8323C18.3638 21.6543 17.3748 21.9623 16.5168 21.5993C16.2758 21.4973 16.0708 21.3263 15.8968 21.1643C15.7168 20.9983 15.5038 20.7763 15.2468 20.5093L15.2268 20.4893L11.9988 17.0903L8.76679 20.4953L8.75179 20.5103C8.49479 20.7773 8.28079 20.9993 8.10179 21.1653C7.92679 21.3273 7.72179 21.4983 7.48179 21.6003C6.62179 21.9633 5.63379 21.6553 5.16379 20.8333C5.03179 20.6023 4.97679 20.3393 4.94079 20.1073C4.90379 19.8703 4.87379 19.5673 4.83879 19.2073L4.83579 19.1843C4.78979 18.7133 4.77379 18.6113 4.74879 18.5403C4.71697 18.4461 4.66495 18.36 4.59638 18.288C4.52781 18.2159 4.44434 18.1598 4.35179 18.1233C4.29179 18.1003 4.20479 18.0853 3.74579 18.0363L3.72279 18.0343C3.37579 17.9973 3.08179 17.9663 2.84979 17.9273C2.62379 17.8903 2.35979 17.8313 2.12879 17.6893C1.32479 17.1973 1.05679 16.1973 1.38979 15.3523C1.48579 15.1103 1.64679 14.9023 1.80479 14.7203C1.96479 14.5353 2.17879 14.3133 2.43679 14.0463L4.72379 11.6783C4.40853 10.8207 4.24771 9.91406 4.24879 9.00035ZM5.42679 13.1093L3.53079 15.0723C3.25479 15.3583 3.06879 15.5503 2.93879 15.7013C2.88063 15.7625 2.82901 15.8295 2.78479 15.9013C2.69479 16.1313 2.78479 16.3253 2.90379 16.4043C2.91279 16.4073 2.96379 16.4243 3.09779 16.4473C3.27779 16.4773 3.52779 16.5043 3.90379 16.5443L3.97879 16.5523C4.31879 16.5873 4.61979 16.6193 4.88879 16.7223C5.48779 16.9523 5.94579 17.4323 6.16079 18.0343C6.25679 18.3033 6.28679 18.6073 6.32079 18.9613L6.32879 19.0363C6.36679 19.4253 6.39279 19.6853 6.42279 19.8763C6.44879 20.0383 6.46879 20.0903 6.46979 20.0933C6.54979 20.2283 6.71379 20.2943 6.89479 20.2183C6.89479 20.2183 6.94479 20.1913 7.08079 20.0643C7.22579 19.9303 7.41079 19.7393 7.68579 19.4543L7.68779 19.4523L10.4078 16.5863C9.38634 16.3717 8.41871 15.9531 7.56284 15.3556C6.70696 14.7582 5.98045 13.9942 5.42679 13.1093ZM13.5898 16.5873C14.6115 16.3727 15.5794 15.954 16.4354 15.3564C17.2915 14.7587 18.0181 13.9945 18.5718 13.1093L20.4678 15.0723C20.7438 15.3583 20.9288 15.5503 21.0588 15.7013C21.1818 15.8413 21.2098 15.8963 21.2128 15.9013C21.3028 16.1313 21.2128 16.3253 21.0948 16.4043C21.0848 16.4073 21.0348 16.4243 20.9008 16.4473C20.7198 16.4773 20.4708 16.5043 20.0938 16.5443L20.0188 16.5523C19.6798 16.5873 19.3778 16.6193 19.1088 16.7223C18.5108 16.9523 18.0518 17.4323 17.8368 18.0343C17.7408 18.3033 17.7108 18.6073 17.6768 18.9613L17.6688 19.0363C17.6308 19.4253 17.6048 19.6853 17.5748 19.8763C17.5498 20.0383 17.5288 20.0903 17.5288 20.0933C17.4488 20.2283 17.2838 20.2953 17.1018 20.2183H17.1038C17.1038 20.2183 17.0538 20.1913 16.9168 20.0643C16.71 19.8661 16.5083 19.6627 16.3118 19.4543L16.3098 19.4523L13.5898 16.5873ZM11.9998 7.03435C11.9408 7.13535 11.8758 7.25135 11.7998 7.38835L11.7018 7.56435C11.6944 7.57765 11.6871 7.59098 11.6798 7.60435C11.6008 7.74835 11.4708 7.98635 11.2538 8.15135C11.0328 8.31935 10.7658 8.37735 10.6108 8.41135L10.5678 8.42035L10.3768 8.46335C10.2008 8.50335 10.0588 8.53535 9.93679 8.56635C10.0158 8.66335 10.1188 8.78535 10.2528 8.94235L10.3828 9.09435L10.4128 9.12835C10.5208 9.25335 10.6958 9.45335 10.7758 9.71335C10.8558 9.96935 10.8278 10.2333 10.8108 10.3993C10.809 10.415 10.8074 10.4307 10.8058 10.4463L10.7858 10.6493C10.7706 10.8025 10.7569 10.9559 10.7448 11.1093C10.8488 11.0633 10.9668 11.0093 11.1078 10.9443L11.2868 10.8623L11.3268 10.8423C11.4708 10.7753 11.7208 10.6583 11.9988 10.6583C12.2778 10.6583 12.5268 10.7753 12.6708 10.8433L12.7108 10.8623L12.8908 10.9443C13.0308 11.0093 13.1488 11.0643 13.2538 11.1093C13.2408 10.9559 13.2268 10.8026 13.2118 10.6493L13.1918 10.4463C13.1902 10.4307 13.1886 10.415 13.1868 10.3993C13.1698 10.2323 13.1428 9.96935 13.2218 9.71335C13.3018 9.45335 13.4768 9.25335 13.5848 9.12835L13.6148 9.09435L13.7448 8.94235C13.8788 8.78535 13.9818 8.66335 14.0618 8.56635C13.9398 8.53635 13.7968 8.50335 13.6218 8.46335L13.4308 8.42035L13.3878 8.41035C13.2318 8.37735 12.9658 8.31935 12.7438 8.15035C12.5268 7.98635 12.3968 7.74835 12.3188 7.60535L12.2958 7.56435L12.1978 7.38835C12.1218 7.25135 12.0578 7.13535 11.9988 7.03435M11.0118 5.80035C11.1838 5.57535 11.4968 5.25035 11.9978 5.25035C12.4998 5.25035 12.8128 5.57535 12.9848 5.80035C13.1488 6.01435 13.3148 6.31135 13.4848 6.61635L13.5068 6.65735L13.6058 6.83435L13.6618 6.93435L13.7608 6.95735L13.9508 7.00035L13.9988 7.01035C14.3268 7.08535 14.6518 7.15835 14.9018 7.25735C15.1788 7.36635 15.5518 7.57735 15.6968 8.04235C15.8388 8.49735 15.6598 8.88335 15.5038 9.13235C15.3588 9.36235 15.1398 9.61835 14.9138 9.88135L14.8838 9.91635L14.7538 10.0693L14.6718 10.1663L14.6838 10.3013L14.7038 10.5043L14.7078 10.5503C14.7428 10.9023 14.7758 11.2423 14.7628 11.5143C14.7508 11.8003 14.6828 12.2323 14.2948 12.5253C13.8948 12.8293 13.4548 12.7633 13.1748 12.6823C12.9168 12.6093 12.6128 12.4683 12.3048 12.3273L12.2618 12.3073L12.0828 12.2243C12.0545 12.2113 12.0261 12.1983 11.9978 12.1853L11.9128 12.2253L11.7348 12.3073L11.6908 12.3273C11.3838 12.4683 11.0788 12.6093 10.8208 12.6823C10.5408 12.7623 10.1008 12.8293 9.70079 12.5253C9.31379 12.2323 9.24579 11.8003 9.23279 11.5153C9.22079 11.2423 9.25279 10.9023 9.28779 10.5503L9.29279 10.5043L9.31279 10.3013L9.32479 10.1663C9.29734 10.1338 9.26967 10.1015 9.24179 10.0693L9.11179 9.91635L9.08179 9.88135C8.85679 9.61835 8.63679 9.36135 8.49179 9.13135C8.33579 8.88335 8.15779 8.49735 8.29879 8.04135C8.44379 7.57835 8.81779 7.36635 9.09379 7.25735C9.34379 7.15835 9.66979 7.08535 9.99779 7.01135L10.0438 7.00135L10.2348 6.95735L10.3348 6.93435L10.3908 6.83435L10.4888 6.65735L10.5118 6.61635C10.6818 6.31135 10.8468 6.01435 11.0118 5.80035Z" fill="#64748B"/>
</svg>
