<svg width="24" height="24" viewBox="0 0 24 24" fill="none" xmlns="http://www.w3.org/2000/svg">
<g clip-path="url(#clip0_8232_37878)">
<path d="M7.7508 16.2849L16.3222 7.71345M0.859375 18.8563C0.859374 19.3104 1.03952 19.7459 1.36026 20.0673C1.68101 20.3887 2.11617 20.5697 2.57023 20.5706H21.4342C21.8883 20.5697 22.3234 20.3887 22.6442 20.0673C22.9649 19.7459 23.1451 19.3104 23.1451 18.8563V15.3694C22.4049 15.1687 21.7514 14.7299 21.2854 14.1208C20.8195 13.5117 20.567 12.7661 20.567 11.9992C20.567 11.2322 20.8195 10.4867 21.2854 9.87753C21.7514 9.26839 22.4049 8.82959 23.1451 8.62888V5.14202C23.1451 4.68796 22.9649 4.25244 22.6442 3.93105C22.3234 3.60966 21.8883 3.42864 21.4342 3.42773H2.57023C2.11617 3.42864 1.68101 3.60966 1.36026 3.93105C1.03952 4.25244 0.859374 4.68796 0.859375 5.14202V8.62202C1.60546 8.81825 2.26557 9.25603 2.73662 9.86699C3.20767 10.4779 3.46314 11.2277 3.46314 11.9992C3.46314 12.7706 3.20767 13.5204 2.73662 14.1313C2.26557 14.7423 1.60546 15.1801 0.859375 15.3763V18.8563Z" stroke="#64748B" stroke-width="1.71429" stroke-linecap="round" stroke-linejoin="round"/>
<path d="M8.60714 9.42718C8.83447 9.42718 9.05249 9.33687 9.21323 9.17612C9.37398 9.01538 9.46429 8.79736 9.46429 8.57003C9.46429 8.34271 9.37398 8.12469 9.21323 7.96394C9.05249 7.8032 8.83447 7.71289 8.60714 7.71289C8.37981 7.71289 8.1618 7.8032 8.00105 7.96394C7.84031 8.12469 7.75 8.34271 7.75 8.57003C7.75 8.79736 7.84031 9.01538 8.00105 9.17612C8.1618 9.33687 8.37981 9.42718 8.60714 9.42718ZM15.4643 16.2843C15.6916 16.2843 15.9096 16.194 16.0704 16.0333C16.2311 15.8725 16.3214 15.6545 16.3214 15.4272C16.3214 15.1998 16.2311 14.9818 16.0704 14.8211C15.9096 14.6603 15.6916 14.57 15.4643 14.57C15.237 14.57 15.0189 14.6603 14.8582 14.8211C14.6974 14.9818 14.6071 15.1998 14.6071 15.4272C14.6071 15.6545 14.6974 15.8725 14.8582 16.0333C15.0189 16.194 15.237 16.2843 15.4643 16.2843Z" stroke="#64748B" stroke-width="1.71429" stroke-linecap="round" stroke-linejoin="round"/>
</g>
<defs>
<clipPath id="clip0_8232_37878">
<rect width="24" height="24" fill="white"/>
</clipPath>
</defs>
</svg>
