<svg width="25" height="24" viewBox="0 0 25 24" fill="none" xmlns="http://www.w3.org/2000/svg">
<path fill-rule="evenodd" clip-rule="evenodd" d="M12.4952 15.3873C11.0584 15.3873 9.92338 16.5732 10.0257 17.9675L10.2731 21.336L8.79665 21.4385L8.54932 18.07C8.38575 15.8422 10.1994 13.9473 12.4952 13.9473C14.7911 13.9473 16.6047 15.8422 16.4412 18.07L16.1938 21.4385L14.7174 21.336L14.9648 17.9675C15.0671 16.5732 13.9321 15.3873 12.4952 15.3873Z" fill="white"/>
<path fill-rule="evenodd" clip-rule="evenodd" d="M10.7756 3.43868C10.0593 3.82974 9.21184 4.42448 8.01511 5.26626L6.59428 6.26568C5.63151 6.9429 4.95383 7.42061 4.4589 7.84782C3.97578 8.26483 3.71613 8.59336 3.56036 8.94867C3.40517 9.30262 3.3441 9.7036 3.37446 10.3137C3.40569 10.941 3.52856 11.725 3.70507 12.8423L4.00213 14.723C4.25206 16.3051 4.43009 17.4229 4.68109 18.2655C4.92563 19.0864 5.21609 19.56 5.63712 19.9007C6.06118 20.2438 6.61214 20.4476 7.52516 20.5554C8.4567 20.6655 9.66753 20.6668 11.371 20.6668H13.6185C15.3219 20.6668 16.5328 20.6655 17.4643 20.5554C18.3773 20.4476 18.9283 20.2438 19.3523 19.9007C19.7734 19.56 20.0638 19.0864 20.3083 18.2655C20.5594 17.4229 20.7374 16.3051 20.9873 14.723L21.2844 12.8423C21.4609 11.725 21.5838 10.941 21.6149 10.3137C21.6453 9.7036 21.5842 9.30262 21.4291 8.94867C21.2733 8.59336 21.0137 8.26483 20.5306 7.84782C20.0356 7.42061 19.3579 6.9429 18.3951 6.26568L16.9744 5.26626C15.7776 4.42448 14.9301 3.82974 14.2138 3.43868C13.5147 3.05699 13.0049 2.9068 12.4947 2.9068C11.9845 2.9068 11.4748 3.05699 10.7756 3.43868ZM10.0512 2.1829C10.8761 1.7326 11.6401 1.4668 12.4947 1.4668C13.3494 1.4668 14.1134 1.7326 14.9382 2.1829C15.7374 2.61921 16.6532 3.26339 17.8047 4.07344L19.2939 5.12087C20.218 5.77093 20.9562 6.29012 21.5129 6.77067C22.0878 7.26686 22.5178 7.76152 22.7906 8.38372C23.064 9.0073 23.1302 9.64638 23.0934 10.3834C23.058 11.0945 22.9225 11.9525 22.7535 13.0224L22.4424 14.9919C22.2022 16.5124 22.011 17.7231 21.7301 18.6663C21.4396 19.6416 21.0304 20.4159 20.2989 21.0078C19.5704 21.5972 18.7027 21.8597 17.6427 21.985C16.6116 22.1068 15.3109 22.1068 13.6679 22.1068H11.3215C9.67857 22.1068 8.37783 22.1068 7.34669 21.985C6.28672 21.8597 5.41901 21.5972 4.69059 21.0078C3.95914 20.4159 3.5499 19.6416 3.2594 18.6663C2.97846 17.7231 2.78723 16.5124 2.54706 14.9919L2.23597 13.0225C2.06695 11.9526 1.9314 11.0945 1.89601 10.3834C1.85934 9.64638 1.92545 9.0073 2.19884 8.38372C2.47163 7.76152 2.90168 7.26686 3.47653 6.77067C4.03327 6.29011 4.7714 5.77092 5.69557 5.12086L7.18467 4.07343C8.33625 3.26339 9.25203 2.61921 10.0512 2.1829Z" fill="white"/>
</svg>
